<?xml version="1.0" encoding="UTF-8"?>
<!DOCTYPE svg PUBLIC "-//W3C//DTD SVG 1.1//EN" "http://www.w3.org/Graphics/SVG/1.1/DTD/svg11.dtd">
<!-- Creator: CorelDRAW 2018 (64-Bit) -->
<svg xmlns="http://www.w3.org/2000/svg" xml:space="preserve" width="4.2332mm" height="4.2332mm" version="1.1" style="shape-rendering:geometricPrecision; text-rendering:geometricPrecision; image-rendering:optimizeQuality; fill-rule:evenodd; clip-rule:evenodd"
viewBox="0 0 423.32 423.32"
 xmlns:xlink="http://www.w3.org/1999/xlink">
 <defs>
  <style type="text/css">
   <![CDATA[
    .fil1 {fill:#F8F8F8}
    .fil0 {fill:white}
    .fil2 {fill:#794A5E;fill-rule:nonzero}
   ]]>
  </style>
 </defs>
 <g id="Слой_x0020_1">
  <metadata id="CorelCorpID_0Corel-Layer"/>
  <polygon class="fil0" points="-30411.26,-2535.62 -14155.26,-2535.62 -14155.26,-494.77 -30411.26,-494.77 "/>
  <polygon class="fil1" points="-30353.2,-2899.89 -30353.2,-2837.51 -14287.79,-2837.51 -14287.79,-2853.3 -14567.6,-2854.5 -14468.06,-2973.53 -14816.86,-2973.53 -14945.51,-2848.32 -15270.27,-2854.27 -15170.62,-2973.53 -15519.59,-2973.53 -15632.99,-2858.66 -15971.67,-2853.95 -15872.56,-2973.53 -16222.22,-2973.53 -16350.53,-2847.67 -16674.36,-2854.47 -16574.8,-2973.53 -16923.72,-2973.53 -17038.63,-2858.11 -17376.82,-2853.95 -17276.89,-2973.53 -17626.38,-2973.53 -17755.7,-2847 -18079.02,-2854.78 -17979.75,-2973.53 -18329.24,-2973.53 -18464.8,-2851.9 -18788.32,-2859.59 -18685.9,-2973.53 -19035.87,-2973.53 -19148.57,-2860.15 -19488.39,-2853.73 -19388.47,-2973.53 -19737.67,-2973.53 -19851.15,-2860.14 -20191.25,-2853.4 -20091.41,-2973.53 -20440.25,-2973.53 -20573.38,-2853.05 -20896.61,-2859.68 -20793.7,-2973.53 -21143.2,-2973.53 -21256.17,-2853.83 -21598.76,-2859.73 -21496.18,-2973.53 -21846.05,-2973.53 -21959.02,-2853.73 -22300.89,-2859.28 -22198.2,-2973.53 -22546.89,-2973.53 -22676.25,-2847.23 -23000.49,-2854.44 -22900.93,-2973.53 -23249.96,-2973.53 -23364.77,-2853.68 -23704.62,-2859.84 -23603.13,-2973.53 -23952.23,-2973.53 -24087.71,-2852.53 -24405.94,-2860.01 -24305.42,-2973.53 -24655.94,-2973.53 -24790.56,-2852.36 -25114.51,-2859.65 -25010.97,-2973.53 -25361.23,-2973.53 -25474.32,-2860.42 -25814.42,-2853.63 -25714.62,-2973.53 -26063.21,-2973.53 -26196.27,-2852.92 -26519.51,-2859.92 -26416.59,-2973.53 -26765.9,-2973.53 -26879.06,-2853.9 -27221.84,-2859.84 -27119.57,-2973.53 -27469.07,-2973.53 -27582.58,-2859.64 -27921.57,-2853.62 -27821.1,-2973.53 -28170.56,-2973.53 -28299.29,-2847.56 -28623.38,-2854.54 -28524.3,-2973.53 -28873.14,-2973.53 -29007.74,-2852.82 -29328.82,-2859.51 -29226.4,-2973.53 -29575.4,-2973.53 -29710.59,-2852.65 -30029.68,-2859.82 -29928.8,-2973.53 -30277.3,-2973.53 "/>
  <path class="fil2" d="M288.72 130.6l-70.58 70.6 -80.71 -80.68 70.6 -70.58 80.69 80.66zm102.13 142.49l-70.6 70.58 -80.68 -80.64 70.57 -70.62 80.71 80.68zm-177.76 8.82l-70.61 70.6 -80.73 -80.68 70.63 -70.63 80.71 80.71z"/>
 </g>
</svg>
